<svg xmlns="http://www.w3.org/2000/svg" viewBox="0 0 448 512"><path d="M366.769 241.796l-29.779-8.508C357.087 207.959 368 176.82 368 144 368 64.475 303.662 0 224 0 144.475 0 80 64.338 80 144c0 32.82 10.913 63.959 31.01 89.288l-29.779 8.508C19.49 259.437 0 315.585 0 349.487v103.084C0 485.34 26.659 512 59.428 512h329.143c32.77 0 59.429-26.66 59.429-59.429V349.487c0-33.198-18.981-89.905-81.231-107.691zM224 32c61.856 0 112 50.144 112 112s-50.144 112-112 112-112-50.144-112-112S162.144 32 224 32zm-96 320c17.645 0 32 14.355 32 32s-14.355 32-32 32-32-14.355-32-32 14.355-32 32-32zm288 100.571C416 467.72 403.72 480 388.571 480H59.428C44.28 480 32 467.72 32 452.572V349.487c0-35.718 23.678-67.109 58.022-76.922L112 266.286v55.74c-28.495 7.361-49.358 33.905-47.931 64.976 1.505 32.778 28.096 59.393 60.873 60.927C161.616 449.645 192 420.304 192 384c0-29.767-20.427-54.852-48-61.975v-58.242C167.481 279.536 195.089 288 224 288c22.577 0 44.357-5.167 64-14.93v16.54c-36.471 7.433-64 39.756-64 78.39v59.28a12 12 0 0 0 9.647 11.767l31.449 6.29c6.499 1.3 12.821-2.915 14.12-9.414l1.569-7.845c1.3-6.499-2.915-12.82-9.414-14.12L256 410.883v-42.077c0-26.283 20.793-48.297 47.071-48.797C329.961 319.498 352 341.224 352 368v42.883l-15.371 3.074c-6.499 1.3-10.713 7.622-9.414 14.12l1.569 7.845c1.3 6.499 7.622 10.713 14.12 9.414l31.449-6.29A11.999 11.999 0 0 0 384 427.28V368c0-38.634-27.529-70.957-64-78.39v-27.896l37.978 10.851C392.322 282.378 416 313.769 416 349.487v103.084z"/></svg>