<svg xmlns="http://www.w3.org/2000/svg" viewBox="0 0 448 512"><path d="M355.165 226.983l-11.257-3.216C353.3 209.665 368 182.136 368 144 368 64.519 303.584 0 224 0 144.519 0 80 64.416 80 144c0 38.131 14.696 65.659 24.093 79.767l-11.257 3.216C56.355 237.407 0 276.069 0 350.058v88.799C0 479.188 32.812 512 73.143 512h301.714C415.188 512 448 479.188 448 438.857v-88.799c0-73.384-55.581-112.43-92.835-123.075zM224 48c53.019 0 96 42.981 96 96s-42.981 96-96 96-96-42.981-96-96 42.981-96 96-96zm-96 312.667c12.866 0 23.333 10.467 23.333 23.333S140.866 407.333 128 407.333 104.667 396.866 104.667 384s10.467-23.333 23.333-23.333zm272 78.19C400 452.743 388.743 464 374.857 464H73.143C59.257 464 48 452.743 48 438.857v-88.799c0-35.719 23.679-67.11 58.023-76.922l1.977-.565v58.418c-23.077 8.736-39.015 32.116-36.383 58.747 2.675 27.063 24.68 48.601 51.79 50.749 33.309 2.638 61.26-23.721 61.26-56.485 0-24.208-15.263-44.909-36.667-53.011v-64.661c13.689 8.51 39.931 21.672 76 21.672 27.899 0 48.686-7.893 60-13.077v31.365c-30.835 8.735-53.5 37.116-53.5 70.712v44.509a12 12 0 0 0 9.647 11.767l27.655 5.531c6.499 1.3 12.821-2.915 14.12-9.414l2.157-10.786c1.3-6.499-2.915-12.82-9.414-14.12l-9.165-1.833v-24.931c0-21.024 16.553-38.714 37.571-39.212 21.651-.513 39.429 16.952 39.429 38.489v25.653l-9.165 1.833c-6.499 1.3-10.713 7.621-9.414 14.12l2.157 10.786c1.3 6.499 7.622 10.714 14.12 9.414l27.655-5.531a12 12 0 0 0 9.647-11.767V377c0-33.595-22.665-61.977-53.5-70.712V268l17.978 5.136C376.322 282.949 400 314.34 400 350.058v88.799z"/></svg>